# xmcd CD database file
#
# Track frame offsets:
#	150
#	16800
#	31350
#	44550
#	59250
#	73350
#
# Disc length: 1192 seconds
#
# Revision: 1
# Processed by: cddbd v1.5.2PL0 Copyright (c) Steve Scherf et al.
# Submitted via: CDex 1.51
#
DISCID=5104a606
DTITLE=Against The Current - Gravity EP
DYEAR=2015
DGENRE=Rock
TTITLE0=Gravity
TTITLE1=Talk
TTITLE2=Dreaming Alone (feat. Taka from One OK Rock)
TTITLE3=Paralyzed
TTITLE4=Fireproof
TTITLE5=Brighter
EXTD=YEAR: 2015
EXTT0=
EXTT1=
EXTT2=
EXTT3=
EXTT4=
EXTT5=
PLAYORDER=
